<?xml version="1.0" standalone="no"?>
<!DOCTYPE svg PUBLIC "-//W3C//DTD SVG 20010904//EN"
 "http://www.w3.org/TR/2001/REC-SVG-20010904/DTD/svg10.dtd">
<svg version="1.0" xmlns="http://www.w3.org/2000/svg"
 width="512.000000pt" height="512.000000pt" viewBox="0 0 512.000000 512.000000"
 preserveAspectRatio="xMidYMid meet">
<metadata>
Created by potrace 1.14, written by Peter Selinger 2001-2017
</metadata>
<g transform="translate(0.000000,512.000000) scale(0.100000,-0.100000)"
fill="#000000" stroke="none">
<path d="M2285 4709 c-16 -5 -50 -12 -74 -15 -80 -9 -156 -22 -186 -32 -80
-27 -121 -31 -172 -16 -29 8 -76 14 -105 12 l-53 -3 230 -117 c252 -129 327
-180 493 -335 84 -78 112 -99 131 -96 13 2 69 46 124 99 130 124 259 208 518
339 115 58 207 110 204 116 -9 13 -84 11 -141 -5 -73 -20 -174 -19 -261 4 -41
11 -98 23 -127 26 -28 4 -56 11 -63 16 -18 14 -481 20 -518 7z m221 -571 l29
-33 -32 29 c-31 28 -38 36 -30 36 2 0 16 -15 33 -32z"/>
<path d="M3555 4354 c-22 -9 -125 -40 -229 -69 -209 -60 -289 -94 -380 -159
-81 -58 -124 -104 -193 -206 -58 -85 -124 -142 -180 -156 -66 -17 -153 43
-228 158 -118 178 -247 268 -486 337 -55 16 -107 27 -115 24 -8 -3 -14 -1 -14
5 0 6 -9 8 -20 5 -11 -3 -20 0 -20 6 0 5 -7 8 -15 5 -8 -4 -15 -2 -15 4 0 6
-10 8 -22 4 -16 -4 -19 -2 -13 8 6 10 3 12 -13 8 -14 -4 -20 -2 -15 5 4 6 -2
8 -15 5 -12 -3 -22 -2 -24 2 -2 5 -14 11 -28 14 -22 5 -35 -7 -110 -100 -165
-206 -210 -281 -267 -453 -31 -92 -36 -122 -40 -226 -3 -86 0 -138 11 -184 16
-68 14 -84 -8 -75 -22 9 -46 -36 -46 -87 0 -45 -3 -50 -70 -114 -46 -46 -86
-97 -121 -159 -102 -178 -225 -335 -294 -374 -19 -10 -19 -11 -1 -31 11 -12
25 -21 31 -21 7 0 18 -7 25 -15 10 -12 7 -29 -13 -87 -42 -120 -64 -225 -82
-390 -6 -56 -6 -58 17 -58 22 0 24 -6 42 -132 31 -228 90 -423 133 -443 14 -6
26 -25 33 -55 22 -89 91 -212 155 -278 86 -88 109 -85 117 18 l3 35 50 -80
c58 -94 151 -190 217 -225 44 -23 49 -24 64 -8 16 16 21 14 73 -30 87 -73 184
-136 256 -166 l34 -14 15 45 c34 100 123 114 151 24 l7 -24 13 29 c16 39 70
84 101 84 25 0 84 -68 84 -99 0 -10 9 -3 21 17 22 34 54 48 88 37 21 -6 64
-74 75 -116 4 -19 12 -27 28 -27 13 0 104 0 203 0 99 0 204 1 234 3 l53 3 18
51 c24 71 46 93 89 89 27 -2 41 -11 57 -35 22 -33 22 -33 28 -9 8 33 71 86
102 86 28 0 71 -41 80 -77 7 -25 24 -32 24 -10 0 24 45 57 77 57 37 0 58 -22
79 -83 15 -44 16 -46 42 -35 57 24 199 125 251 177 l53 54 19 -24 18 -24 48
25 c67 35 162 132 213 218 50 85 60 94 60 53 0 -39 16 -81 32 -81 7 0 40 29
74 64 64 65 112 147 154 264 16 44 28 62 40 62 10 0 21 7 24 16 3 8 9 13 13
11 5 -3 9 9 9 26 1 16 9 36 17 42 9 7 15 14 12 17 -2 2 6 56 20 119 33 158 57
326 50 349 -5 17 -3 18 24 7 45 -17 56 0 54 82 -3 93 -38 249 -80 354 -19 49
-32 91 -29 94 3 3 16 11 28 17 37 19 32 40 -19 76 -26 19 -56 44 -65 55 -28
32 -126 180 -181 274 -33 57 -77 113 -131 165 -75 74 -81 83 -82 122 -1 25
-11 58 -24 79 -23 37 -23 38 -5 87 15 42 17 68 12 152 -4 55 -14 130 -22 166
-9 36 -17 76 -19 90 -5 40 -36 108 -95 210 -100 175 -176 270 -216 270 -29 0
-45 20 -48 59 -2 35 -6 36 -62 15z m-1695 -174 c170 -34 347 -141 444 -270 54
-72 75 -134 83 -248 4 -58 12 -90 24 -105 l17 -22 24 21 c59 55 100 57 156 8
24 -21 42 -30 42 -22 0 7 8 21 18 29 14 12 22 42 31 110 17 126 35 163 126
258 106 111 261 209 353 225 20 3 51 8 67 11 17 3 45 7 62 10 60 10 114 -12
173 -73 138 -141 219 -312 236 -498 21 -224 -102 -435 -316 -542 -87 -43 -191
-72 -268 -72 -56 0 -181 26 -235 49 -23 10 -66 35 -96 55 -30 20 -55 35 -56
34 -1 -2 -22 -41 -48 -88 -57 -107 -113 -163 -159 -162 -26 0 -42 10 -76 49
-23 26 -57 73 -74 103 -17 30 -39 63 -50 74 -19 18 -20 18 -41 -2 -32 -29
-118 -70 -184 -87 -73 -19 -222 -19 -293 0 -138 37 -285 137 -356 243 -63 94
-88 184 -88 312 1 211 83 391 256 556 75 73 80 74 228 44z m-80 -1503 c0 -5 6
-7 13 -4 6 2 41 -7 77 -21 67 -25 233 -75 285 -86 17 -3 39 -8 50 -11 115 -25
455 -33 592 -14 109 15 336 66 397 90 28 11 71 24 96 29 25 5 53 12 63 15 14
6 17 1 18 -36 0 -32 3 -39 8 -24 5 11 12 20 17 20 5 0 14 4 21 8 6 4 23 -5 39
-22 15 -17 32 -27 37 -24 6 3 7 1 3 -6 -4 -7 2 -15 16 -20 13 -6 18 -10 11
-10 -7 -1 -10 -8 -6 -17 3 -8 11 -13 18 -11 16 7 11 -49 -10 -96 -4 -10 -2
-23 5 -32 9 -10 9 -15 1 -15 -6 0 -11 -5 -11 -11 0 -6 6 -9 13 -6 8 3 14 -1
14 -8 0 -11 -5 -11 -28 1 -35 18 -114 128 -124 172 -4 18 -9 31 -11 29 -5 -5
35 -174 46 -197 5 -8 13 -14 19 -12 6 1 11 -2 11 -8 0 -5 5 -10 11 -10 5 0 7
5 3 12 -4 7 -3 8 4 4 6 -4 9 -13 6 -21 -6 -13 19 -49 27 -40 2 2 4 -21 3 -50
0 -30 3 -52 6 -50 4 3 6 -64 4 -148 -2 -88 0 -146 5 -138 7 10 9 8 8 -10 0
-13 5 -53 12 -89 7 -36 17 -99 22 -140 5 -41 14 -89 20 -106 5 -17 11 -41 14
-53 2 -12 16 -52 31 -89 32 -81 59 -333 34 -317 -5 3 -10 0 -10 -9 0 -8 -13
-25 -29 -39 -17 -14 -27 -28 -24 -31 4 -3 -1 -6 -9 -6 -8 0 -27 -9 -42 -21
-14 -11 -26 -17 -26 -13 0 4 -8 1 -17 -7 -22 -18 -141 -80 -162 -84 -74 -15
-117 -28 -128 -36 -7 -6 -17 -8 -23 -4 -5 3 -10 2 -10 -2 0 -5 -12 -10 -27
-11 -16 -1 -39 -5 -53 -8 -14 -3 -38 -7 -55 -10 -16 -3 -55 -12 -85 -19 -51
-13 -186 -33 -220 -33 -8 0 -44 -3 -80 -7 -72 -9 -169 -9 -215 -1 -16 3 -51 7
-77 10 -59 6 -228 36 -248 43 -8 3 -22 7 -30 8 -105 14 -192 30 -196 37 -3 4
-16 8 -30 8 -14 0 -38 7 -53 15 -16 8 -31 11 -35 8 -3 -4 -6 -2 -6 3 0 5 -10
10 -21 11 -12 1 -33 12 -47 25 -14 13 -21 16 -17 9 5 -9 -5 -5 -22 7 -17 12
-34 22 -38 22 -4 0 -13 8 -20 17 -7 9 -19 17 -28 19 -9 1 -30 12 -46 23 -16
12 -34 21 -41 21 -7 0 -10 7 -6 16 3 8 2 12 -3 9 -6 -3 -18 8 -27 25 -10 16
-22 30 -27 30 -5 0 -7 50 -5 112 4 107 7 118 47 207 23 51 39 96 37 99 -3 2
-1 12 4 21 5 9 16 75 24 147 9 71 21 161 26 199 18 123 21 207 7 198 -9 -5 -9
-3 1 9 6 8 13 34 14 56 1 23 4 40 7 38 3 -2 7 8 8 23 1 15 4 39 7 54 2 15 0
27 -5 27 -5 0 -9 -5 -9 -12 0 -6 -3 -8 -6 -5 -10 10 18 39 32 33 9 -3 11 0 7
11 -5 12 -2 15 10 10 9 -3 19 -1 23 5 5 7 2 8 -6 3 -9 -5 -11 -4 -6 3 4 7 14
12 23 12 9 0 13 3 10 6 -3 4 -2 14 3 24 5 9 10 34 12 54 1 20 6 36 10 36 4 0
8 7 8 15 0 26 -16 16 -28 -17 -20 -56 -130 -163 -149 -145 -2 3 5 8 16 12 12
3 19 11 16 16 -3 5 1 6 9 3 10 -4 14 0 12 13 -2 10 1 23 6 30 6 8 4 20 -7 36
-9 15 -12 26 -6 29 6 1 12 12 14 23 1 11 6 26 10 33 5 7 5 21 2 32 -4 12 -2
19 4 18 6 -2 22 11 36 27 15 17 24 24 20 18 -13 -26 22 -12 36 14 l14 26 6
-39 6 -39 2 42 c1 35 4 42 21 40 11 -1 20 -5 20 -10z m2797 -579 c-3 -7 -5 -2
-5 12 0 14 2 19 5 13 2 -7 2 -19 0 -25z m0 -50 c-3 -8 -6 -5 -6 6 -1 11 2 17
5 13 3 -3 4 -12 1 -19z"/>
<path d="M2015 3830 c-39 -15 -94 -88 -110 -145 -25 -85 -1 -181 56 -230 20
-17 22 -17 9 -1 -8 10 -15 25 -16 33 -2 12 2 12 22 -2 14 -9 51 -19 82 -22 67
-6 73 -10 48 -29 -23 -16 -13 -19 15 -3 11 5 16 15 13 21 -4 6 -3 8 3 5 15
-10 42 24 64 82 36 97 19 191 -47 258 -36 36 -50 43 -81 42 -21 0 -47 -4 -58
-9z m139 -51 c32 -25 33 -57 5 -93 -16 -21 -28 -26 -52 -24 -62 6 -76 92 -19
122 35 20 35 20 66 -5z"/>
<path d="M2939 3817 c-52 -35 -81 -97 -87 -183 -4 -60 -1 -80 18 -118 22 -45
71 -96 93 -96 8 0 7 3 -2 9 -9 6 -10 11 -3 15 15 9 76 11 90 2 6 -3 13 -2 17
3 3 6 20 20 37 32 l31 22 -17 -25 c-22 -33 -5 -44 22 -15 87 92 62 288 -46
359 -39 26 -111 23 -153 -5z m51 -37 c51 -27 45 -97 -10 -120 -71 -30 -120 71
-57 115 25 18 41 19 67 5z"/>
<path d="M2988 3413 c6 -2 18 -2 25 0 6 3 1 5 -13 5 -14 0 -19 -2 -12 -5z"/>
<path d="M592 1750 c0 -19 2 -27 5 -17 2 9 2 25 0 35 -3 9 -5 1 -5 -18z"/>
<path d="M4502 1680 c0 -14 2 -19 5 -12 2 6 2 18 0 25 -3 6 -5 1 -5 -13z"/>
<path d="M4481 1584 c0 -11 3 -14 6 -6 3 7 2 16 -1 19 -3 4 -6 -2 -5 -13z"/>
<path d="M1891 562 c-15 -45 -13 -56 7 -43 8 5 12 23 10 47 l-3 39 -14 -43z"/>
<path d="M2117 541 c-9 -49 -7 -53 12 -42 10 7 11 18 4 47 l-9 39 -7 -44z"/>
<path d="M3200 548 c0 -32 0 -32 16 -10 15 22 12 42 -7 42 -5 0 -9 -15 -9 -32z"/>
<path d="M2979 542 c-3 -20 -2 -29 4 -23 5 5 7 19 5 32 -3 20 -5 19 -9 -9z"/>
</g>
</svg>
